<?xml version="1.0" encoding="utf-8"?>
<!-- Generator: Adobe Illustrator 24.2.1, SVG Export Plug-In . SVG Version: 6.00 Build 0)  -->
<svg version="1.1" id="Layer_1" xmlns="http://www.w3.org/2000/svg" xmlns:xlink="http://www.w3.org/1999/xlink" x="0px" y="0px"
	 viewBox="0 0 292.6 57.07" style="enable-background:new 0 0 292.6 57.07;" xml:space="preserve">
<style type="text/css">
	.st0{fill:#2B388B;}
	.st1{fill:#EB2227;}
	.st2{fill:#FCEE1F;}
	.st3{fill:#2A3478;}
	.st4{fill:#D22028;}
</style>
<g>
	<g>
		<path class="st0" d="M28.37,0.3v2c14.27,0,26.03,11.61,26.22,25.88c0.19,14.46-11.41,26.38-25.87,26.58l-0.36,0
			c-14.27,0-26.03-11.61-26.22-25.88c-0.09-7.01,2.55-13.63,7.43-18.65C14.45,5.22,21,2.4,28.01,2.31l0.36,0L28.37,0.3 M28.37,0.3
			c-0.13,0-0.26,0-0.39,0C12.39,0.52-0.07,13.32,0.13,28.91c0.21,15.46,12.8,27.85,28.22,27.85c0.13,0,0.26,0,0.39,0
			c15.59-0.21,28.06-13.02,27.85-28.6C56.38,12.7,43.78,0.3,28.37,0.3L28.37,0.3z"/>
	</g>
	<polygon class="st0" points="55.72,28.47 32.64,32.8 28.42,55.89 24.1,32.82 1,28.6 24.08,24.27 28.3,1.18 32.63,24.25 	"/>
	<polygon class="st1" points="46.18,28.49 31.15,31.31 28.4,46.36 25.58,31.32 10.54,28.57 25.57,25.76 28.32,10.71 31.14,25.74 	
		"/>
	<polygon class="st2" points="34.41,28.52 29.31,29.48 28.37,34.59 27.42,29.48 22.31,28.55 27.41,27.59 28.35,22.48 29.3,27.59 	
		"/>
</g>
<g>
	<g>
		<path class="st3" d="M60.72,18.16h16.25v4.22H66.8v3.14h9.44v4.03H66.8v3.9h10.47v4.48H60.72V18.16z"/>
		<path class="st3" d="M78.61,18.16h6.34l4.42,14.23l4.36-14.23h6.15l-7.29,19.77h-6.57L78.61,18.16z"/>
		<path class="st3" d="M101.9,18.16h5.66l7.39,10.94V18.16h5.72v19.77h-5.72l-7.35-10.86v10.86h-5.7V18.16z"/>
	</g>
</g>
<g>
	<g>
		<path class="st4" d="M130.32,17.81h6.18l-0.88,7.14h6.75l0.88-7.14h6.21l-2.5,20.4h-6.21l1.01-8.25h-6.75l-1.01,8.25h-6.18
			L130.32,17.81z"/>
		<path class="st4" d="M165.39,29.86l5.21,1.67c-0.55,1.55-1.29,2.85-2.2,3.88c-0.91,1.04-1.97,1.82-3.2,2.35
			c-1.23,0.53-2.73,0.79-4.52,0.79c-2.17,0-3.91-0.32-5.21-0.96c-1.3-0.65-2.35-1.78-3.15-3.4c-0.8-1.62-1.05-3.7-0.74-6.23
			c0.41-3.38,1.61-5.97,3.59-7.78c1.98-1.81,4.58-2.72,7.8-2.72c2.52,0,4.43,0.52,5.75,1.56c1.31,1.04,2.19,2.64,2.62,4.79
			l-5.61,1.24c-0.11-0.62-0.26-1.08-0.43-1.36c-0.29-0.48-0.67-0.85-1.14-1.12c-0.47-0.26-1.01-0.39-1.63-0.39
			c-1.4,0-2.54,0.57-3.43,1.72c-0.67,0.85-1.12,2.19-1.34,4.02c-0.28,2.26-0.13,3.81,0.44,4.65c0.57,0.84,1.46,1.26,2.68,1.26
			c1.18,0,2.12-0.34,2.8-1.02C164.4,32.13,164.96,31.15,165.39,29.86z"/>
		<path class="st4" d="M175.22,17.81h8.12l1.61,12.41l4.64-12.41h8.12l-2.5,20.4h-5.06l1.91-15.56l-5.81,15.56h-4.58l-1.98-15.56
			l-1.91,15.56h-5.06L175.22,17.81z"/>
		<path class="st4" d="M213.47,29.86l5.21,1.67c-0.55,1.55-1.29,2.85-2.2,3.88c-0.91,1.04-1.97,1.82-3.2,2.35
			c-1.23,0.53-2.73,0.79-4.52,0.79c-2.17,0-3.91-0.32-5.21-0.96c-1.3-0.65-2.35-1.78-3.15-3.4c-0.8-1.62-1.05-3.7-0.74-6.23
			c0.41-3.38,1.61-5.97,3.59-7.78c1.98-1.81,4.58-2.72,7.8-2.72c2.52,0,4.43,0.52,5.75,1.56c1.31,1.04,2.19,2.64,2.62,4.79
			l-5.61,1.24c-0.11-0.62-0.26-1.08-0.43-1.36c-0.29-0.48-0.67-0.85-1.14-1.12c-0.47-0.26-1.01-0.39-1.63-0.39
			c-1.4,0-2.54,0.57-3.43,1.72c-0.67,0.85-1.12,2.19-1.34,4.02c-0.28,2.26-0.13,3.81,0.44,4.65c0.57,0.84,1.46,1.26,2.68,1.26
			c1.18,0,2.12-0.34,2.8-1.02C212.49,32.13,213.04,31.15,213.47,29.86z"/>
	</g>
</g>
</svg>
